name C:\Users\u0101727\Documents\MyRepositories\upper-imu-dc\OpenSim\subject0\MA\MA_Splines\angle_in_n6_dof6_3.mot
datacolumns 7
datarows 33
range 300.01000000 300.33000000
endheader 
time	clav_prot	clav_elev	scapula_abduction	scapula_elevation	scapula_upward_rot	scapula_winging	
        300.01000000	        -44.34577705	          2.15399008	         11.28790885	         -7.82036939	         85.49388449	         -0.91704303	
        300.02000000	        -38.85780873	          2.15399008	         11.28790885	         -7.82036939	         85.49388449	         -0.91704303	
        300.03000000	        -33.36984042	          2.15399008	         11.28790885	         -7.82036939	         85.49388449	         -0.91704303	
        300.04000000	        -27.88187210	          2.15399008	         11.28790885	         -7.82036939	         85.49388449	         -0.91704303	
        300.05000000	        -22.39390379	          2.15399008	         11.28790885	         -7.82036939	         85.49388449	         -0.91704303	
        300.06000000	        -16.90593547	          2.15399008	         11.28790885	         -7.82036939	         85.49388449	         -0.91704303	
        300.07000000	        -44.34577705	          7.05722688	         11.28790885	         -7.82036939	         85.49388449	         -0.91704303	
        300.08000000	        -38.85780873	          7.05722688	         11.28790885	         -7.82036939	         85.49388449	         -0.91704303	
        300.09000000	        -33.36984042	          7.05722688	         11.28790885	         -7.82036939	         85.49388449	         -0.91704303	
        300.10000000	        -27.88187210	          7.05722688	         11.28790885	         -7.82036939	         85.49388449	         -0.91704303	
        300.11000000	        -22.39390379	          7.05722688	         11.28790885	         -7.82036939	         85.49388449	         -0.91704303	
        300.12000000	        -16.90593547	          7.05722688	         11.28790885	         -7.82036939	         85.49388449	         -0.91704303	
        300.13000000	        -44.34577705	         11.96046367	         11.28790885	         -7.82036939	         85.49388449	         -0.91704303	
        300.14000000	        -38.85780873	         11.96046367	         11.28790885	         -7.82036939	         85.49388449	         -0.91704303	
        300.15000000	        -33.36984042	         11.96046367	         11.28790885	         -7.82036939	         85.49388449	         -0.91704303	
        300.16000000	        -27.88187210	         11.96046367	         11.28790885	         -7.82036939	         85.49388449	         -0.91704303	
        300.17000000	        -22.39390379	         11.96046367	         11.28790885	         -7.82036939	         85.49388449	         -0.91704303	
        300.18000000	        -16.90593547	         11.96046367	         11.28790885	         -7.82036939	         85.49388449	         -0.91704303	
        300.19000000	        -44.34577705	         16.86370047	         11.28790885	         -7.82036939	         85.49388449	         -0.91704303	
        300.20000000	        -38.85780873	         16.86370047	         11.28790885	         -7.82036939	         85.49388449	         -0.91704303	
        300.21000000	        -33.36984042	         16.86370047	         11.28790885	         -7.82036939	         85.49388449	         -0.91704303	
        300.22000000	        -27.88187210	         16.86370047	         11.28790885	         -7.82036939	         85.49388449	         -0.91704303	
        300.23000000	        -22.39390379	         16.86370047	         11.28790885	         -7.82036939	         85.49388449	         -0.91704303	
        300.24000000	        -16.90593547	         16.86370047	         11.28790885	         -7.82036939	         85.49388449	         -0.91704303	
        300.25000000	        -44.34577705	         -7.65248351	        -30.88730313	         -4.83889401	         85.49388449	         -0.91704303	
        300.26000000	        -38.85780873	         -7.65248351	        -30.88730313	         -4.83889401	         85.49388449	         -0.91704303	
        300.27000000	        -33.36984042	         -7.65248351	        -30.88730313	         -4.83889401	         85.49388449	         -0.91704303	
        300.28000000	        -27.88187210	         -7.65248351	        -30.88730313	         -4.83889401	         85.49388449	         -0.91704303	
        300.29000000	        -22.39390379	         -7.65248351	        -30.88730313	         -4.83889401	         85.49388449	         -0.91704303	
        300.30000000	        -16.90593547	         -7.65248351	        -30.88730313	         -4.83889401	         85.49388449	         -0.91704303	
        300.31000000	        -44.34577705	         -2.74924671	        -30.88730313	         -4.83889401	         85.49388449	         -0.91704303	
        300.32000000	        -38.85780873	         -2.74924671	        -30.88730313	         -4.83889401	         85.49388449	         -0.91704303	
        300.33000000	        -33.36984042	         -2.74924671	        -30.88730313	         -4.83889401	         85.49388449	         -0.91704303	
